# xmcd
#
# Track frame offsets:
# 150
# 19885
# 38397
# 64854
#
# Disc length: 1134 seconds
#
# Revision: 0
# Processed by: cddbd v1.5.2PL0 Copyright (c) Steve Scherf et al.
# Submitted via: Audion 3.0.2 (http://www.panic.com/audion/)
#
DISCID=28046c04
DTITLE=the cabriolets - sampler
DYEAR=1900
DGENRE=
TTITLE0=hysterical
TTITLE1=quiero satisfacción
TTITLE2=holding
TTITLE3=the law of withdrawal
EXTD=
EXTT0=
EXTT1=
EXTT2=
EXTT3=
PLAYORDER=
